<svg version="1.1" id="Layer_1" xmlns="http://www.w3.org/2000/svg" xmlns:xlink="http://www.w3.org/1999/xlink" x="0px" y="0px"
	 width="100%" viewBox="0 0 1024 1024" enable-background="new 0 0 1024 1024" xml:space="preserve">
<path fill="#FFFFFF" opacity="1.000000" stroke="none" 
	d="
M595.000000,1025.000000 
	C396.666656,1025.000000 198.833328,1025.000000 1.000000,1025.000000 
	C1.000000,683.666687 1.000000,342.333344 1.000000,1.000000 
	C342.333344,1.000000 683.666687,1.000000 1025.000000,1.000000 
	C1025.000000,342.333344 1025.000000,683.666687 1025.000000,1025.000000 
	C881.833313,1025.000000 738.666687,1025.000000 595.000000,1025.000000 
M906.957825,522.476196 
	C906.663574,515.002625 906.184143,507.530853 906.109924,500.055084 
	C905.894836,478.379944 903.138245,456.999878 898.983948,435.770691 
	C890.866089,394.287231 876.367432,355.106476 855.435974,318.439270 
	C831.790649,277.018005 801.723450,240.884567 764.963806,210.296753 
	C729.939026,181.152542 691.216614,158.457184 648.473267,142.879608 
	C596.916321,124.089989 543.658203,115.779160 488.810394,120.076927 
	C469.489075,121.590919 450.021942,123.500389 431.107239,127.517166 
	C378.266479,138.738556 329.552490,159.957291 285.453369,191.393021 
	C255.882843,212.472153 229.423340,236.906311 206.623474,265.198334 
	C183.314514,294.122070 164.193420,325.569855 149.610992,359.805359 
	C132.316269,400.408569 121.970894,442.733124 119.349327,486.675323 
	C117.715752,514.056885 118.884422,541.512878 122.864304,568.808838 
	C128.420975,606.919006 139.020370,643.493774 155.315231,678.336792 
	C178.959976,728.895813 211.588837,772.740723 253.769196,809.511658 
	C286.948456,838.435852 323.678070,861.391235 364.383911,878.099243 
	C408.062012,896.027344 453.542572,905.433105 500.651886,906.879211 
	C512.936279,907.256287 525.316589,906.989075 537.551880,905.891663 
	C554.888245,904.336792 572.323242,902.721985 589.375427,899.389343 
	C630.784668,891.296326 669.904541,876.726318 706.662048,855.768188 
	C749.082397,831.581299 785.938721,800.782349 816.941589,763.188599 
	C849.463196,723.753113 873.605225,679.600769 888.974548,630.725708 
	C899.960327,595.790466 905.777100,560.026367 906.957825,522.476196 
z"/>
<path fill="#8CD8DB" opacity="1.000000" stroke="none" 
	d="
M906.954285,522.970825 
	C905.777100,560.026367 899.960327,595.790466 888.974548,630.725708 
	C873.605225,679.600769 849.463196,723.753113 816.941589,763.188599 
	C785.938721,800.782349 749.082397,831.581299 706.662048,855.768188 
	C669.904541,876.726318 630.784668,891.296326 589.375427,899.389343 
	C572.323242,902.721985 554.888245,904.336792 537.551880,905.891663 
	C525.316589,906.989075 512.936279,907.256287 500.651886,906.879211 
	C453.542572,905.433105 408.062012,896.027344 364.383911,878.099243 
	C323.678070,861.391235 286.948456,838.435852 253.769196,809.511658 
	C211.588837,772.740723 178.959976,728.895813 155.315231,678.336792 
	C139.020370,643.493774 128.420975,606.919006 122.864304,568.808838 
	C118.884422,541.512878 117.715752,514.056885 119.349327,486.675323 
	C121.970894,442.733124 132.316269,400.408569 149.610992,359.805359 
	C164.193420,325.569855 183.314514,294.122070 206.623474,265.198334 
	C229.423340,236.906311 255.882843,212.472153 285.453369,191.393021 
	C329.552490,159.957291 378.266479,138.738556 431.107239,127.517166 
	C450.021942,123.500389 469.489075,121.590919 488.810394,120.076927 
	C543.658203,115.779160 596.916321,124.089989 648.473267,142.879608 
	C691.216614,158.457184 729.939026,181.152542 764.963806,210.296753 
	C801.723450,240.884567 831.790649,277.018005 855.435974,318.439270 
	C876.367432,355.106476 890.866089,394.287231 898.983948,435.770691 
	C903.138245,456.999878 905.894836,478.379944 906.109924,500.055084 
	C906.184143,507.530853 906.663574,515.002625 906.954285,522.970825 
M603.772278,871.222656 
	C606.349670,870.577759 608.947693,870.005371 611.501343,869.277161 
	C680.263367,849.670410 738.876282,813.735901 787.025635,760.711853 
	C806.608643,739.146179 823.500305,715.708252 837.301819,690.141113 
	C868.321472,632.677490 884.375122,571.432495 881.960999,505.867493 
	C881.387512,490.291901 880.012146,474.694092 878.025574,459.232452 
	C873.110352,420.976929 861.530579,384.626923 844.456665,350.113037 
	C821.810791,304.335815 791.129578,264.686310 752.159973,231.572662 
	C717.032166,201.723480 677.776123,179.029175 634.190552,163.913177 
	C589.420044,148.386246 543.423462,140.982132 496.029602,143.999542 
	C479.319214,145.063431 462.498199,146.369949 446.061188,149.384232 
	C392.294312,159.244186 342.982239,180.009171 298.338318,211.773804 
	C262.139557,237.529633 231.715408,268.834747 206.680542,305.475159 
	C184.041641,338.608917 167.380386,374.536041 156.531250,413.130646 
	C148.224213,442.681976 143.431976,472.834717 143.076202,503.554596 
	C142.814209,526.177979 144.394058,548.710632 147.879822,571.114319 
	C153.180954,605.185669 163.024811,637.871338 177.649078,669.048645 
	C200.074631,716.857544 231.115692,758.211426 271.148407,792.798279 
	C300.363403,818.039062 332.612366,838.443726 368.133240,853.419678 
	C417.814880,874.365906 469.631470,884.169312 523.679932,882.255920 
	C550.528442,881.305420 576.969055,878.140747 603.772278,871.222656 
z"/>
<path fill="#FFFFFF" opacity="1.000000" stroke="none" 
	d="
M603.382446,871.360352 
	C576.969055,878.140747 550.528442,881.305420 523.679932,882.255920 
	C469.631470,884.169312 417.814880,874.365906 368.133240,853.419678 
	C332.612366,838.443726 300.363403,818.039062 271.148407,792.798279 
	C231.115692,758.211426 200.074631,716.857544 177.649078,669.048645 
	C163.024811,637.871338 153.180954,605.185669 147.879822,571.114319 
	C144.394058,548.710632 142.814209,526.177979 143.076202,503.554596 
	C143.431976,472.834717 148.224213,442.681976 156.531250,413.130646 
	C167.380386,374.536041 184.041641,338.608917 206.680542,305.475159 
	C231.715408,268.834747 262.139557,237.529633 298.338318,211.773804 
	C342.982239,180.009171 392.294312,159.244186 446.061188,149.384232 
	C462.498199,146.369949 479.319214,145.063431 496.029602,143.999542 
	C543.423462,140.982132 589.420044,148.386246 634.190552,163.913177 
	C677.776123,179.029175 717.032166,201.723480 752.159973,231.572662 
	C791.129578,264.686310 821.810791,304.335815 844.456665,350.113037 
	C861.530579,384.626923 873.110352,420.976929 878.025574,459.232452 
	C880.012146,474.694092 881.387512,490.291901 881.960999,505.867493 
	C884.375122,571.432495 868.321472,632.677490 837.301819,690.141113 
	C823.500305,715.708252 806.608643,739.146179 787.025635,760.711853 
	C738.876282,813.735901 680.263367,849.670410 611.501343,869.277161 
	C608.947693,870.005371 606.349670,870.577759 603.382446,871.360352 
M693.431335,484.927856 
	C712.622131,464.022430 720.685547,439.308960 716.587158,411.378662 
	C710.732056,371.476013 677.798645,340.573883 638.835388,337.149475 
	C597.042786,333.476410 559.789429,357.816956 546.493958,397.498169 
	C545.731079,399.774811 545.078186,402.088257 544.104309,405.264496 
	C535.383728,396.151764 525.543091,391.505005 513.678711,390.716919 
	C501.385193,389.900330 491.407043,394.527252 482.266113,402.606842 
	C481.796051,401.369659 481.366333,400.512756 481.140594,399.605194 
	C469.384277,352.336456 425.682892,324.759918 377.298004,334.093994 
	C333.216583,342.597870 302.787537,386.553955 309.165619,432.514099 
	C315.275574,476.541748 354.470825,508.821716 399.798767,507.156738 
	C444.095459,505.529633 480.328888,470.147522 483.230560,425.790161 
	C483.432953,422.696167 483.681458,419.323730 485.020630,416.634583 
	C490.593964,405.443054 505.225677,398.816284 517.578918,401.445465 
	C531.906860,404.494904 541.462097,415.079742 542.516663,428.749390 
	C542.899170,433.707642 543.356689,438.737335 544.549316,443.543488 
	C552.756348,476.615601 573.087891,499.049164 605.750610,508.438995 
	C638.838806,517.951111 668.154175,509.317139 693.431335,484.927856 
M498.854858,701.664856 
	C500.965698,704.852600 502.987000,708.105469 505.234589,711.193665 
	C506.051208,712.315735 507.362976,713.754761 508.526154,713.828430 
	C513.251099,714.127686 518.006042,713.952881 523.075928,713.952881 
	C523.075928,699.675293 523.075928,686.235168 523.075928,672.759155 
	C524.878784,672.189941 526.364502,671.720886 527.505005,671.360840 
	C527.505005,668.344788 527.505005,665.780273 527.505005,663.277100 
	C520.152527,663.277100 513.248657,663.277100 505.952911,663.277100 
	C506.770477,666.859192 503.178162,671.513245 509.660095,672.567749 
	C510.182648,672.652771 510.789062,674.176208 510.812500,675.045898 
	C510.929993,679.407837 510.866302,683.774658 510.866302,688.139771 
	C505.018402,681.024536 500.209381,673.686401 495.186523,666.497742 
	C494.150330,665.014771 492.376862,663.167725 490.840729,663.068054 
	C484.757019,662.673340 478.632629,662.905823 472.656891,662.905823 
	C471.495880,668.410950 471.525726,668.384338 475.312531,672.629700 
	C475.790070,673.165100 475.928955,674.156250 475.932312,674.937500 
	C475.972961,684.403625 475.958679,693.870056 475.958679,703.547119 
	C467.939606,704.610291 472.866455,709.864502 472.017548,713.663208 
	C479.451813,713.663208 486.500519,713.663208 493.676971,713.663208 
	C493.676971,710.432373 493.676971,707.545593 493.676971,704.658813 
	C493.321899,704.878540 492.966827,705.098267 492.611725,705.317993 
	C491.356018,703.990601 489.189819,702.770996 489.017456,701.315369 
	C488.525543,697.161072 488.844574,692.910706 488.844574,688.698181 
	C489.195221,688.616760 489.545868,688.535400 489.896515,688.454041 
	C492.750214,692.656311 495.603882,696.858521 498.854858,701.664856 
M338.034210,707.422791 
	C346.675507,715.866882 355.623108,716.849487 366.332245,710.600220 
	C371.250671,716.975952 377.659943,712.932678 383.010925,713.777405 
	C384.027802,704.810852 384.963501,696.560120 385.902191,688.283203 
	C377.611725,688.283203 370.033508,688.283203 361.061127,688.283203 
	C362.216370,691.305298 362.442627,694.549133 364.108429,695.688904 
	C367.325653,697.890137 366.262756,699.313171 364.174927,700.876465 
	C360.572876,703.573425 353.667908,702.339539 352.178589,697.901611 
	C350.621857,693.263000 350.168152,687.902832 350.705322,683.020020 
	C351.165222,678.839050 354.364319,675.354858 359.178894,675.130920 
	C363.656616,674.922607 365.983459,677.812073 367.310547,681.875427 
	C367.620819,682.825439 369.102753,683.933655 370.120087,684.012939 
	C373.541107,684.279358 376.995728,684.114319 380.602234,684.114319 
	C380.602234,676.749146 380.602234,670.038025 380.602234,662.960144 
	C375.878204,663.612549 370.535675,660.225647 368.143158,666.916687 
	C357.393829,657.823059 344.253937,662.495300 338.405884,669.329712 
	C330.291565,678.812439 329.114288,697.049744 338.034210,707.422791 
M368.137085,588.369446 
	C368.388733,589.840576 368.675842,591.306580 368.886688,592.783569 
	C371.629333,611.994507 395.221527,621.531555 410.780182,609.683411 
	C419.781586,602.828613 420.941650,593.261047 420.081573,582.896057 
	C418.670898,565.895996 405.435577,558.210938 389.859283,560.761475 
	C375.416534,563.126343 369.739471,570.856384 368.137085,588.369446 
M551.067688,699.941956 
	C555.963562,700.863159 561.958069,697.229004 566.628784,703.526611 
	C563.568909,703.979858 561.521362,704.283203 559.488342,704.584351 
	C559.488342,707.805054 559.488342,710.695496 559.488342,713.623413 
	C569.427612,713.623413 578.974670,713.623413 588.591064,713.623413 
	C588.591064,710.335266 588.591064,707.432739 588.591064,704.246277 
	C584.152405,704.905945 583.000610,702.203308 582.019287,698.948059 
	C578.761902,688.142944 575.395325,677.369507 571.915771,666.634094 
	C571.468994,665.255920 570.141052,663.144897 569.167786,663.114929 
	C560.282166,662.841675 551.384705,662.954346 540.760681,662.954346 
	C542.337036,667.022278 543.484741,669.761475 544.432922,672.567993 
	C544.712830,673.396729 544.631531,674.476379 544.373047,675.338257 
	C541.799072,683.922180 539.179077,692.492615 536.493774,701.042358 
	C536.170227,702.072327 535.449097,703.734558 534.800354,703.789795 
	C527.055420,704.449585 531.176270,709.841309 530.273560,713.689697 
	C538.369995,713.689697 545.914734,713.689697 553.702271,713.689697 
	C553.702271,710.476440 553.702271,707.578369 553.702271,704.973999 
	C552.126343,703.380493 546.487488,705.204224 551.067688,699.941956 
M645.773254,581.725769 
	C644.024170,576.182373 642.390930,570.597656 640.439636,565.126404 
	C639.986267,563.855347 638.475525,562.080261 637.407104,562.048950 
	C628.813721,561.797485 620.209839,561.908203 611.131470,561.908203 
	C611.131470,564.843506 610.161987,568.119507 611.304382,569.237610 
	C615.559509,573.402161 612.017578,577.019958 611.128601,580.665344 
	C609.753784,586.303040 607.678162,591.765808 606.120300,597.364197 
	C605.133972,600.908630 604.021667,604.036194 599.476196,603.481506 
	C599.476196,606.797852 599.476196,609.688049 599.476196,612.607605 
	C607.416016,612.607605 614.965881,612.607605 622.701660,612.607605 
	C622.701660,609.437195 622.701660,606.664307 622.701660,603.883545 
	C622.096741,603.593994 621.641357,603.423523 621.235657,603.172729 
	C620.148743,602.500977 619.083008,601.794861 618.008911,601.102417 
	C619.223145,600.339233 620.383728,599.047302 621.662231,598.917603 
	C624.793091,598.600037 628.011169,598.560364 631.125061,598.954407 
	C632.308289,599.104126 633.302368,600.748352 635.333435,602.558960 
	C631.790649,603.024109 630.187134,603.234619 628.485474,603.458069 
	C628.485474,606.726562 628.485474,609.736572 628.485474,612.710632 
	C638.382263,612.710632 647.813354,612.710632 658.195374,612.710632 
	C656.548889,608.977539 661.154724,603.381470 653.237061,602.781555 
	C652.515198,602.726807 651.721375,600.796570 651.335327,599.614990 
	C649.478516,593.931885 647.750244,588.206787 645.773254,581.725769 
M592.643677,671.726440 
	C595.284668,672.002747 596.102722,673.409607 596.043579,676.075989 
	C595.866394,684.062439 595.999634,692.055359 595.957275,700.045471 
	C595.951355,701.174927 595.929810,703.131836 595.429810,703.305298 
	C589.378235,705.404053 592.720520,709.906555 592.190918,713.672668 
	C600.199951,713.672668 607.756592,713.672668 615.565613,713.672668 
	C615.790283,709.111511 617.791565,704.282715 611.291321,703.234314 
	C611.291321,699.721252 611.291321,696.600952 611.291321,693.336304 
	C615.877014,692.769897 618.088501,694.374573 618.144287,698.970154 
	C618.176147,701.598511 618.497498,704.305603 619.216064,706.826904 
	C620.934753,712.857239 628.648376,716.400330 635.626099,714.613037 
	C641.335999,713.150513 644.420471,707.732910 643.021301,701.298828 
	C642.837341,700.452698 641.780640,699.320740 641.000488,699.208618 
	C640.153198,699.086731 638.990906,699.830078 638.277283,700.518860 
	C637.696594,701.079224 637.575562,702.115906 637.250610,702.941345 
	C634.721008,697.374451 634.266724,690.915039 626.644043,688.638306 
	C633.361267,685.710327 636.822937,681.764404 635.951294,675.051514 
	C635.166687,669.009033 631.554138,664.207581 624.600830,663.655762 
	C613.932800,662.809021 603.147949,663.433289 592.136292,663.433289 
	C592.136292,666.086182 592.136292,668.546814 592.643677,671.726440 
M424.619751,662.889465 
	C422.854492,662.976074 421.089233,663.062683 418.634674,663.183105 
	C419.034302,666.612122 418.542938,671.430786 419.855499,671.986206 
	C424.005676,673.742310 422.870483,676.732056 422.833466,679.420044 
	C422.760315,684.727905 422.447174,690.041260 421.994629,695.331909 
	C421.692596,698.862915 420.442535,701.778076 416.121796,702.092041 
	C411.737183,702.410583 409.320740,700.160583 408.999481,696.184753 
	C408.412140,688.916016 408.308533,681.607483 408.061768,674.313599 
	C408.041504,673.715210 408.345520,672.660706 408.704773,672.561096 
	C414.745056,670.886658 411.114624,666.604492 411.737946,663.311768 
	C403.708893,663.311768 396.171356,663.311768 387.273438,663.311768 
	C388.384399,666.728699 389.113708,669.455139 390.172119,672.047241 
	C390.814514,673.620422 392.680847,674.946838 392.763123,676.451599 
	C393.098969,682.595215 392.813507,688.769775 393.025635,694.923767 
	C393.442841,707.027344 401.547638,714.735901 413.934052,715.030823 
	C427.697266,715.358521 434.979279,709.266235 436.001129,696.236267 
	C436.519958,689.620361 436.556702,682.967529 436.882660,676.334900 
	C436.945374,675.058960 437.025635,672.882080 437.630524,672.674683 
	C443.425964,670.687927 440.137726,666.621704 440.507324,662.889282 
	C435.202362,662.889282 430.394958,662.889282 424.619751,662.889465 
M571.790588,613.985474 
	C581.959778,615.032654 590.158386,611.326233 597.117310,603.924805 
	C595.533020,602.055603 594.282043,600.514771 592.959595,599.038025 
	C591.671997,597.600220 590.311157,596.228027 589.028931,594.876038 
	C586.743286,596.600586 584.973755,598.125000 583.025879,599.370483 
	C576.759705,603.377075 570.276123,601.264587 567.632812,594.354309 
	C565.567749,588.955811 566.110352,583.570801 568.406616,578.407166 
	C569.788818,575.299133 572.200623,573.560059 575.919800,573.783875 
	C579.627441,574.007141 580.903137,576.404724 582.068115,579.357605 
	C582.586304,580.671021 583.771667,582.546204 584.830200,582.670776 
	C588.371094,583.087402 591.991455,582.828796 595.628113,582.828796 
	C595.628113,575.510986 595.628113,568.945557 595.628113,561.377991 
	C590.726868,562.049683 586.315491,562.654175 580.531433,563.446838 
	C575.959045,559.746887 569.408325,559.747864 562.873657,563.190552 
	C553.078979,568.350708 547.386169,580.900940 549.207703,592.562744 
	C551.039001,604.287659 558.538879,611.688843 571.790588,613.985474 
M464.842285,567.816650 
	C463.162598,566.510498 461.664459,564.588928 459.764771,564.028442 
	C456.009857,562.920593 452.048492,562.130859 448.144287,561.989868 
	C439.925140,561.692993 431.687866,561.899597 423.590668,561.899597 
	C422.803223,568.148376 422.848785,568.109680 426.418610,572.314087 
	C426.975098,572.969421 427.081451,574.160583 427.087250,575.105835 
	C427.137085,583.250488 427.133789,591.395630 427.092651,599.540405 
	C427.087799,600.498047 427.002899,602.143860 426.543335,602.306458 
	C420.544098,604.428345 423.858521,608.913025 423.347595,612.692871 
	C431.364166,612.692871 438.916626,612.692871 447.153595,612.692871 
	C446.894257,609.459412 447.553467,604.590637 446.280853,604.018433 
	C439.891479,601.145569 444.177277,596.382996 443.225983,593.805847 
	C450.109375,591.613464 456.963348,590.544983 462.591248,587.330139 
	C468.425140,583.997559 468.807159,576.111816 464.842285,567.816650 
M677.146423,693.466919 
	C677.146484,687.975098 676.935608,682.470154 677.274658,676.999329 
	C677.376831,675.352417 678.794861,672.640991 679.979187,672.423035 
	C683.478760,671.779053 683.322998,674.791870 683.129211,677.107788 
	C682.822388,680.773987 684.219421,682.378601 687.976257,681.978638 
	C689.873230,681.776550 691.809570,681.943359 693.750061,681.943359 
	C693.750061,675.208557 693.750061,669.309448 693.750061,663.341309 
	C677.371643,663.341309 661.367065,663.341309 645.389099,663.341309 
	C645.389099,669.700684 645.389099,675.600952 645.389099,681.608398 
	C648.997681,681.608398 652.231934,681.608398 655.676208,681.608398 
	C655.898865,678.391724 656.099670,675.490051 656.328857,672.179443 
	C658.427795,672.298584 660.117065,672.394409 661.772461,672.488403 
	C661.772461,683.234985 661.772461,693.331787 661.772461,703.560486 
	C659.813843,703.933533 658.096741,704.260559 656.427612,704.578491 
	C656.427612,707.787109 656.427612,710.684387 656.427612,713.597778 
	C665.685852,713.597778 674.559143,713.597778 683.368713,713.597778 
	C684.496643,705.060669 684.496643,705.060669 677.146729,703.204346 
	C677.146729,700.374390 677.146729,697.412231 677.146423,693.466919 
M501.974640,581.530396 
	C501.974640,578.249573 501.974640,574.968750 501.974640,571.604248 
	C504.329529,571.604248 506.018097,571.604248 507.789001,571.604248 
	C507.956360,574.815857 508.101074,577.592712 508.252075,580.490112 
	C511.955353,580.490112 515.302490,580.490112 518.559082,580.490112 
	C518.559082,574.121948 518.559082,568.212402 518.559082,562.229980 
	C502.256561,562.229980 486.352417,562.229980 470.322693,562.229980 
	C470.322693,568.590027 470.322693,574.600342 470.322693,580.614807 
	C473.726959,580.614807 476.653656,580.614807 480.171448,580.614807 
	C480.171448,578.173584 479.792297,575.952698 480.317596,573.971619 
	C480.619324,572.833740 482.382599,571.369324 483.496735,571.361816 
	C484.611359,571.354248 486.687775,572.954224 486.711121,573.890259 
	C486.950653,583.481018 486.857849,593.080078 486.857849,602.618835 
	C484.534149,602.988831 482.939209,603.242798 481.228760,603.515137 
	C481.228760,606.685486 481.228760,609.580872 481.228760,612.587769 
	C490.277832,612.587769 498.980896,612.587769 507.611206,612.587769 
	C507.611206,609.251648 507.611206,606.346802 507.611206,603.408752 
	C505.639893,603.131348 504.043823,602.906738 501.974609,602.615540 
	C501.974609,595.772827 501.974609,589.147827 501.974640,581.530396 
M521.944580,569.178223 
	C522.372070,569.988464 522.742859,570.835449 523.239319,571.601013 
	C524.162476,573.024597 525.944092,574.373108 525.994263,575.801147 
	C526.268555,583.602600 526.151245,591.419006 526.095032,599.229675 
	C526.087036,600.337769 525.929565,602.267273 525.415649,602.424377 
	C518.977112,604.392334 522.949219,609.027832 522.130676,612.586304 
	C530.370605,612.586304 538.065552,612.586304 546.905518,612.586304 
	C545.947266,609.014709 545.291321,606.018250 544.306580,603.133911 
	C543.817749,601.702026 542.054932,600.495605 542.016174,599.154114 
	C541.790649,591.349487 541.881042,583.534851 541.933899,575.724060 
	C541.941467,574.606812 542.049866,572.677734 542.575439,572.500488 
	C548.749451,570.419373 545.230164,565.923157 545.803894,562.353394 
	C537.587952,562.353394 529.903381,562.353394 521.934631,562.353394 
	C521.934631,564.637207 521.934631,566.454895 521.944580,569.178223 
M463.309692,662.889709 
	C456.718719,662.889709 450.127747,662.889709 442.657959,662.889709 
	C443.229675,666.598694 443.099396,671.595947 444.196930,671.881958 
	C449.503540,673.265015 447.889587,677.052368 447.944366,680.170532 
	C448.072937,687.493591 447.966309,694.820984 447.922577,702.146362 
	C447.919800,702.609131 447.639923,703.070190 447.490601,703.527100 
	C446.053741,703.942505 444.681152,704.339417 443.530212,704.672180 
	C443.530212,707.906067 443.530212,710.800293 443.530212,713.550415 
	C451.862762,713.550415 459.748810,713.550415 467.665955,713.550415 
	C467.665955,710.312256 467.665955,707.532532 467.665955,704.565613 
	C466.099274,704.187134 464.722778,703.854553 463.059875,703.452820 
	C463.059875,694.072876 462.965790,684.935425 463.186340,675.805603 
	C463.212097,674.739380 465.337860,673.867493 465.854431,672.638367 
	C466.789978,670.412354 467.635071,667.995850 467.701874,665.635864 
	C467.726807,664.754028 465.470154,663.807739 463.309692,662.889709 
z"/>
<path fill="#060606" opacity="1.000000" stroke="none" 
	d="
M693.193359,485.191284 
	C668.154175,509.317139 638.838806,517.951111 605.750610,508.438995 
	C573.087891,499.049164 552.756348,476.615601 544.549316,443.543488 
	C543.356689,438.737335 542.899170,433.707642 542.516663,428.749390 
	C541.462097,415.079742 531.906860,404.494904 517.578918,401.445465 
	C505.225677,398.816284 490.593964,405.443054 485.020630,416.634583 
	C483.681458,419.323730 483.432953,422.696167 483.230560,425.790161 
	C480.328888,470.147522 444.095459,505.529633 399.798767,507.156738 
	C354.470825,508.821716 315.275574,476.541748 309.165619,432.514099 
	C302.787537,386.553955 333.216583,342.597870 377.298004,334.093994 
	C425.682892,324.759918 469.384277,352.336456 481.140594,399.605194 
	C481.366333,400.512756 481.796051,401.369659 482.266113,402.606842 
	C491.407043,394.527252 501.385193,389.900330 513.678711,390.716919 
	C525.543091,391.505005 535.383728,396.151764 544.104309,405.264496 
	C545.078186,402.088257 545.731079,399.774811 546.493958,397.498169 
	C559.789429,357.816956 597.042786,333.476410 638.835388,337.149475 
	C677.798645,340.573883 710.732056,371.476013 716.587158,411.378662 
	C720.685547,439.308960 712.622131,464.022430 693.193359,485.191284 
M699.327393,458.710938 
	C706.998352,443.138672 709.204285,426.780182 706.004028,409.765686 
	C698.402527,369.351654 659.113708,341.620758 618.731262,347.734863 
	C579.631592,353.654755 546.471191,389.974915 554.227539,437.899872 
	C560.154236,474.519653 594.389038,502.729828 631.324036,501.413391 
	C661.746521,500.329102 684.310730,486.071045 699.327393,458.710938 
M372.464996,493.214447 
	C413.378082,505.988403 456.284790,484.064362 469.211304,443.779999 
	C482.328735,402.900574 460.514557,359.703033 420.034210,346.397095 
	C380.548431,333.418030 336.261749,355.364868 323.124542,394.421967 
	C309.306549,435.502960 330.763763,479.050293 372.464996,493.214447 
z"/>
<path fill="#8CD8DB" opacity="1.000000" stroke="none" 
	d="
M498.656219,701.362793 
	C495.603882,696.858521 492.750214,692.656311 489.896515,688.454041 
	C489.545868,688.535400 489.195221,688.616760 488.844574,688.698181 
	C488.844574,692.910706 488.525543,697.161072 489.017456,701.315369 
	C489.189819,702.770996 491.356018,703.990601 492.611725,705.317993 
	C492.966827,705.098267 493.321899,704.878540 493.676971,704.658813 
	C493.676971,707.545593 493.676971,710.432373 493.676971,713.663208 
	C486.500519,713.663208 479.451813,713.663208 472.017548,713.663208 
	C472.866455,709.864502 467.939606,704.610291 475.958679,703.547119 
	C475.958679,693.870056 475.972961,684.403625 475.932312,674.937500 
	C475.928955,674.156250 475.790070,673.165100 475.312531,672.629700 
	C471.525726,668.384338 471.495880,668.410950 472.656891,662.905823 
	C478.632629,662.905823 484.757019,662.673340 490.840729,663.068054 
	C492.376862,663.167725 494.150330,665.014771 495.186523,666.497742 
	C500.209381,673.686401 505.018402,681.024536 510.866302,688.139771 
	C510.866302,683.774658 510.929993,679.407837 510.812500,675.045898 
	C510.789062,674.176208 510.182648,672.652771 509.660095,672.567749 
	C503.178162,671.513245 506.770477,666.859192 505.952911,663.277100 
	C513.248657,663.277100 520.152527,663.277100 527.505005,663.277100 
	C527.505005,665.780273 527.505005,668.344788 527.505005,671.360840 
	C526.364502,671.720886 524.878784,672.189941 523.075928,672.759155 
	C523.075928,686.235168 523.075928,699.675293 523.075928,713.952881 
	C518.006042,713.952881 513.251099,714.127686 508.526154,713.828430 
	C507.362976,713.754761 506.051208,712.315735 505.234589,711.193665 
	C502.987000,708.105469 500.965698,704.852600 498.656219,701.362793 
z"/>
<path fill="#8DD9DC" opacity="1.000000" stroke="none" 
	d="
M337.802002,707.142822 
	C329.114288,697.049744 330.291565,678.812439 338.405884,669.329712 
	C344.253937,662.495300 357.393829,657.823059 368.143158,666.916687 
	C370.535675,660.225647 375.878204,663.612549 380.602234,662.960144 
	C380.602234,670.038025 380.602234,676.749146 380.602234,684.114319 
	C376.995728,684.114319 373.541107,684.279358 370.120087,684.012939 
	C369.102753,683.933655 367.620819,682.825439 367.310547,681.875427 
	C365.983459,677.812073 363.656616,674.922607 359.178894,675.130920 
	C354.364319,675.354858 351.165222,678.839050 350.705322,683.020020 
	C350.168152,687.902832 350.621857,693.263000 352.178589,697.901611 
	C353.667908,702.339539 360.572876,703.573425 364.174927,700.876465 
	C366.262756,699.313171 367.325653,697.890137 364.108429,695.688904 
	C362.442627,694.549133 362.216370,691.305298 361.061127,688.283203 
	C370.033508,688.283203 377.611725,688.283203 385.902191,688.283203 
	C384.963501,696.560120 384.027802,704.810852 383.010925,713.777405 
	C377.659943,712.932678 371.250671,716.975952 366.332245,710.600220 
	C355.623108,716.849487 346.675507,715.866882 337.802002,707.142822 
z"/>
<path fill="#8DD9DC" opacity="1.000000" stroke="none" 
	d="
M368.126831,587.933838 
	C369.739471,570.856384 375.416534,563.126343 389.859283,560.761475 
	C405.435577,558.210938 418.670898,565.895996 420.081573,582.896057 
	C420.941650,593.261047 419.781586,602.828613 410.780182,609.683411 
	C395.221527,621.531555 371.629333,611.994507 368.886688,592.783569 
	C368.675842,591.306580 368.388733,589.840576 368.126831,587.933838 
M397.938354,573.363342 
	C394.433105,570.862549 391.007965,571.092285 389.193176,575.029907 
	C385.553345,582.927429 385.573944,591.168762 389.280792,599.043396 
	C390.091644,600.765991 392.883881,602.581726 394.698608,602.517517 
	C396.516418,602.453186 399.191864,600.447021 399.864868,598.674377 
	C403.030548,590.336243 403.524353,581.915955 397.938354,573.363342 
z"/>
<path fill="#8DD9DC" opacity="1.000000" stroke="none" 
	d="
M550.660400,700.113037 
	C546.487488,705.204224 552.126343,703.380493 553.702271,704.973999 
	C553.702271,707.578369 553.702271,710.476440 553.702271,713.689697 
	C545.914734,713.689697 538.369995,713.689697 530.273560,713.689697 
	C531.176270,709.841309 527.055420,704.449585 534.800354,703.789795 
	C535.449097,703.734558 536.170227,702.072327 536.493774,701.042358 
	C539.179077,692.492615 541.799072,683.922180 544.373047,675.338257 
	C544.631531,674.476379 544.712830,673.396729 544.432922,672.567993 
	C543.484741,669.761475 542.337036,667.022278 540.760681,662.954346 
	C551.384705,662.954346 560.282166,662.841675 569.167786,663.114929 
	C570.141052,663.144897 571.468994,665.255920 571.915771,666.634094 
	C575.395325,677.369507 578.761902,688.142944 582.019287,698.948059 
	C583.000610,702.203308 584.152405,704.905945 588.591064,704.246277 
	C588.591064,707.432739 588.591064,710.335266 588.591064,713.623413 
	C578.974670,713.623413 569.427612,713.623413 559.488342,713.623413 
	C559.488342,710.695496 559.488342,707.805054 559.488342,704.584351 
	C561.521362,704.283203 563.568909,703.979858 566.628784,703.526611 
	C561.958069,697.229004 555.963562,700.863159 550.660400,700.113037 
M559.028809,680.536377 
	C558.570923,679.009766 558.113098,677.483154 557.204834,674.454468 
	C555.468384,680.627197 554.128357,685.390869 552.668945,690.578796 
	C556.273254,690.578796 558.862183,690.578796 562.162598,690.578796 
	C561.078491,687.188904 560.134949,684.238281 559.028809,680.536377 
z"/>
<path fill="#8DD9DC" opacity="1.000000" stroke="none" 
	d="
M645.874878,582.111206 
	C647.750244,588.206787 649.478516,593.931885 651.335327,599.614990 
	C651.721375,600.796570 652.515198,602.726807 653.237061,602.781555 
	C661.154724,603.381470 656.548889,608.977539 658.195374,612.710632 
	C647.813354,612.710632 638.382263,612.710632 628.485474,612.710632 
	C628.485474,609.736572 628.485474,606.726562 628.485474,603.458069 
	C630.187134,603.234619 631.790649,603.024109 635.333435,602.558960 
	C633.302368,600.748352 632.308289,599.104126 631.125061,598.954407 
	C628.011169,598.560364 624.793091,598.600037 621.662231,598.917603 
	C620.383728,599.047302 619.223145,600.339233 618.008911,601.102417 
	C619.083008,601.794861 620.148743,602.500977 621.235657,603.172729 
	C621.641357,603.423523 622.096741,603.593994 622.701660,603.883545 
	C622.701660,606.664307 622.701660,609.437195 622.701660,612.607605 
	C614.965881,612.607605 607.416016,612.607605 599.476196,612.607605 
	C599.476196,609.688049 599.476196,606.797852 599.476196,603.481506 
	C604.021667,604.036194 605.133972,600.908630 606.120300,597.364197 
	C607.678162,591.765808 609.753784,586.303040 611.128601,580.665344 
	C612.017578,577.019958 615.559509,573.402161 611.304382,569.237610 
	C610.161987,568.119507 611.131470,564.843506 611.131470,561.908203 
	C620.209839,561.908203 628.813721,561.797485 637.407104,562.048950 
	C638.475525,562.080261 639.986267,563.855347 640.439636,565.126404 
	C642.390930,570.597656 644.024170,576.182373 645.874878,582.111206 
M626.364624,575.607666 
	C624.547668,580.109436 622.730713,584.611206 620.790588,589.418091 
	C624.751587,589.418091 627.578857,589.418091 630.783997,589.418091 
	C629.353821,584.658447 628.075195,580.402954 626.364624,575.607666 
z"/>
<path fill="#8DD9DC" opacity="1.000000" stroke="none" 
	d="
M592.390015,671.366943 
	C592.136292,668.546814 592.136292,666.086182 592.136292,663.433289 
	C603.147949,663.433289 613.932800,662.809021 624.600830,663.655762 
	C631.554138,664.207581 635.166687,669.009033 635.951294,675.051514 
	C636.822937,681.764404 633.361267,685.710327 626.644043,688.638306 
	C634.266724,690.915039 634.721008,697.374451 637.250610,702.941345 
	C637.575562,702.115906 637.696594,701.079224 638.277283,700.518860 
	C638.990906,699.830078 640.153198,699.086731 641.000488,699.208618 
	C641.780640,699.320740 642.837341,700.452698 643.021301,701.298828 
	C644.420471,707.732910 641.335999,713.150513 635.626099,714.613037 
	C628.648376,716.400330 620.934753,712.857239 619.216064,706.826904 
	C618.497498,704.305603 618.176147,701.598511 618.144287,698.970154 
	C618.088501,694.374573 615.877014,692.769897 611.291321,693.336304 
	C611.291321,696.600952 611.291321,699.721252 611.291321,703.234314 
	C617.791565,704.282715 615.790283,709.111511 615.565613,713.672668 
	C607.756592,713.672668 600.199951,713.672668 592.190918,713.672668 
	C592.720520,709.906555 589.378235,705.404053 595.429810,703.305298 
	C595.929810,703.131836 595.951355,701.174927 595.957275,700.045471 
	C595.999634,692.055359 595.866394,684.062439 596.043579,676.075989 
	C596.102722,673.409607 595.284668,672.002747 592.390015,671.366943 
M615.072632,672.138977 
	C613.729614,672.886719 611.356934,673.490112 611.228210,674.408142 
	C610.760376,677.745972 611.043579,681.189026 611.043579,684.776306 
	C615.587891,684.737305 619.606445,684.952026 620.864319,680.470886 
	C622.011475,676.384216 620.370728,673.284302 615.072632,672.138977 
z"/>
<path fill="#8DD9DC" opacity="1.000000" stroke="none" 
	d="
M425.103638,662.889404 
	C430.394958,662.889282 435.202362,662.889282 440.507324,662.889282 
	C440.137726,666.621704 443.425964,670.687927 437.630524,672.674683 
	C437.025635,672.882080 436.945374,675.058960 436.882660,676.334900 
	C436.556702,682.967529 436.519958,689.620361 436.001129,696.236267 
	C434.979279,709.266235 427.697266,715.358521 413.934052,715.030823 
	C401.547638,714.735901 393.442841,707.027344 393.025635,694.923767 
	C392.813507,688.769775 393.098969,682.595215 392.763123,676.451599 
	C392.680847,674.946838 390.814514,673.620422 390.172119,672.047241 
	C389.113708,669.455139 388.384399,666.728699 387.273438,663.311768 
	C396.171356,663.311768 403.708893,663.311768 411.737946,663.311768 
	C411.114624,666.604492 414.745056,670.886658 408.704773,672.561096 
	C408.345520,672.660706 408.041504,673.715210 408.061768,674.313599 
	C408.308533,681.607483 408.412140,688.916016 408.999481,696.184753 
	C409.320740,700.160583 411.737183,702.410583 416.121796,702.092041 
	C420.442535,701.778076 421.692596,698.862915 421.994629,695.331909 
	C422.447174,690.041260 422.760315,684.727905 422.833466,679.420044 
	C422.870483,676.732056 424.005676,673.742310 419.855499,671.986206 
	C418.542938,671.430786 419.034302,666.612122 418.634674,663.183105 
	C421.089233,663.062683 422.854492,662.976074 425.103638,662.889404 
z"/>
<path fill="#8DD9DC" opacity="1.000000" stroke="none" 
	d="
M571.340820,613.973083 
	C558.538879,611.688843 551.039001,604.287659 549.207703,592.562744 
	C547.386169,580.900940 553.078979,568.350708 562.873657,563.190552 
	C569.408325,559.747864 575.959045,559.746887 580.531433,563.446838 
	C586.315491,562.654175 590.726868,562.049683 595.628113,561.377991 
	C595.628113,568.945557 595.628113,575.510986 595.628113,582.828796 
	C591.991455,582.828796 588.371094,583.087402 584.830200,582.670776 
	C583.771667,582.546204 582.586304,580.671021 582.068115,579.357605 
	C580.903137,576.404724 579.627441,574.007141 575.919800,573.783875 
	C572.200623,573.560059 569.788818,575.299133 568.406616,578.407166 
	C566.110352,583.570801 565.567749,588.955811 567.632812,594.354309 
	C570.276123,601.264587 576.759705,603.377075 583.025879,599.370483 
	C584.973755,598.125000 586.743286,596.600586 589.028931,594.876038 
	C590.311157,596.228027 591.671997,597.600220 592.959595,599.038025 
	C594.282043,600.514771 595.533020,602.055603 597.117310,603.924805 
	C590.158386,611.326233 581.959778,615.032654 571.340820,613.973083 
z"/>
<path fill="#8ED9DC" opacity="1.000000" stroke="none" 
	d="
M465.026001,568.149536 
	C468.807159,576.111816 468.425140,583.997559 462.591248,587.330139 
	C456.963348,590.544983 450.109375,591.613464 443.225983,593.805847 
	C444.177277,596.382996 439.891479,601.145569 446.280853,604.018433 
	C447.553467,604.590637 446.894257,609.459412 447.153595,612.692871 
	C438.916626,612.692871 431.364166,612.692871 423.347595,612.692871 
	C423.858521,608.913025 420.544098,604.428345 426.543335,602.306458 
	C427.002899,602.143860 427.087799,600.498047 427.092651,599.540405 
	C427.133789,591.395630 427.137085,583.250488 427.087250,575.105835 
	C427.081451,574.160583 426.975098,572.969421 426.418610,572.314087 
	C422.848785,568.109680 422.803223,568.148376 423.590668,561.899597 
	C431.687866,561.899597 439.925140,561.692993 448.144287,561.989868 
	C452.048492,562.130859 456.009857,562.920593 459.764771,564.028442 
	C461.664459,564.588928 463.162598,566.510498 465.026001,568.149536 
M443.645569,583.653015 
	C449.309662,584.160645 452.323700,582.629761 452.846680,578.716675 
	C453.415497,574.460205 450.831635,572.332886 447.146362,571.329773 
	C444.486603,570.605896 442.579926,571.156738 442.827332,574.595825 
	C443.027557,577.379150 443.003937,580.178589 443.645569,583.653015 
z"/>
<path fill="#8DD9DC" opacity="1.000000" stroke="none" 
	d="
M677.146606,693.958496 
	C677.146729,697.412231 677.146729,700.374390 677.146729,703.204346 
	C684.496643,705.060669 684.496643,705.060669 683.368713,713.597778 
	C674.559143,713.597778 665.685852,713.597778 656.427612,713.597778 
	C656.427612,710.684387 656.427612,707.787109 656.427612,704.578491 
	C658.096741,704.260559 659.813843,703.933533 661.772461,703.560486 
	C661.772461,693.331787 661.772461,683.234985 661.772461,672.488403 
	C660.117065,672.394409 658.427795,672.298584 656.328857,672.179443 
	C656.099670,675.490051 655.898865,678.391724 655.676208,681.608398 
	C652.231934,681.608398 648.997681,681.608398 645.389099,681.608398 
	C645.389099,675.600952 645.389099,669.700684 645.389099,663.341309 
	C661.367065,663.341309 677.371643,663.341309 693.750061,663.341309 
	C693.750061,669.309448 693.750061,675.208557 693.750061,681.943359 
	C691.809570,681.943359 689.873230,681.776550 687.976257,681.978638 
	C684.219421,682.378601 682.822388,680.773987 683.129211,677.107788 
	C683.322998,674.791870 683.478760,671.779053 679.979187,672.423035 
	C678.794861,672.640991 677.376831,675.352417 677.274658,676.999329 
	C676.935608,682.470154 677.146484,687.975098 677.146606,693.958496 
z"/>
<path fill="#8CD8DB" opacity="1.000000" stroke="none" 
	d="
M501.974609,582.026611 
	C501.974609,589.147827 501.974609,595.772827 501.974609,602.615540 
	C504.043823,602.906738 505.639893,603.131348 507.611206,603.408752 
	C507.611206,606.346802 507.611206,609.251648 507.611206,612.587769 
	C498.980896,612.587769 490.277832,612.587769 481.228760,612.587769 
	C481.228760,609.580872 481.228760,606.685486 481.228760,603.515137 
	C482.939209,603.242798 484.534149,602.988831 486.857849,602.618835 
	C486.857849,593.080078 486.950653,583.481018 486.711121,573.890259 
	C486.687775,572.954224 484.611359,571.354248 483.496735,571.361816 
	C482.382599,571.369324 480.619324,572.833740 480.317596,573.971619 
	C479.792297,575.952698 480.171448,578.173584 480.171448,580.614807 
	C476.653656,580.614807 473.726959,580.614807 470.322693,580.614807 
	C470.322693,574.600342 470.322693,568.590027 470.322693,562.229980 
	C486.352417,562.229980 502.256561,562.229980 518.559082,562.229980 
	C518.559082,568.212402 518.559082,574.121948 518.559082,580.490112 
	C515.302490,580.490112 511.955353,580.490112 508.252075,580.490112 
	C508.101074,577.592712 507.956360,574.815857 507.789001,571.604248 
	C506.018097,571.604248 504.329529,571.604248 501.974640,571.604248 
	C501.974640,574.968750 501.974640,578.249573 501.974609,582.026611 
z"/>
<path fill="#8ED9DC" opacity="1.000000" stroke="none" 
	d="
M521.939575,568.725403 
	C521.934631,566.454895 521.934631,564.637207 521.934631,562.353394 
	C529.903381,562.353394 537.587952,562.353394 545.803894,562.353394 
	C545.230164,565.923157 548.749451,570.419373 542.575439,572.500488 
	C542.049866,572.677734 541.941467,574.606812 541.933899,575.724060 
	C541.881042,583.534851 541.790649,591.349487 542.016174,599.154114 
	C542.054932,600.495605 543.817749,601.702026 544.306580,603.133911 
	C545.291321,606.018250 545.947266,609.014709 546.905518,612.586304 
	C538.065552,612.586304 530.370605,612.586304 522.130676,612.586304 
	C522.949219,609.027832 518.977112,604.392334 525.415649,602.424377 
	C525.929565,602.267273 526.087036,600.337769 526.095032,599.229675 
	C526.151245,591.419006 526.268555,583.602600 525.994263,575.801147 
	C525.944092,574.373108 524.162476,573.024597 523.239319,571.601013 
	C522.742859,570.835449 522.372070,569.988464 521.939575,568.725403 
z"/>
<path fill="#8DD9DC" opacity="1.000000" stroke="none" 
	d="
M463.781738,662.890259 
	C465.470154,663.807739 467.726807,664.754028 467.701874,665.635864 
	C467.635071,667.995850 466.789978,670.412354 465.854431,672.638367 
	C465.337860,673.867493 463.212097,674.739380 463.186340,675.805603 
	C462.965790,684.935425 463.059875,694.072876 463.059875,703.452820 
	C464.722778,703.854553 466.099274,704.187134 467.665955,704.565613 
	C467.665955,707.532532 467.665955,710.312256 467.665955,713.550415 
	C459.748810,713.550415 451.862762,713.550415 443.530212,713.550415 
	C443.530212,710.800293 443.530212,707.906067 443.530212,704.672180 
	C444.681152,704.339417 446.053741,703.942505 447.490601,703.527100 
	C447.639923,703.070190 447.919800,702.609131 447.922577,702.146362 
	C447.966309,694.820984 448.072937,687.493591 447.944366,680.170532 
	C447.889587,677.052368 449.503540,673.265015 444.196930,671.881958 
	C443.099396,671.595947 443.229675,666.598694 442.657959,662.889709 
	C450.127747,662.889709 456.718719,662.889709 463.781738,662.890259 
z"/>
<path fill="#FEFEFE" opacity="1.000000" stroke="none" 
	d="
M699.158386,459.045441 
	C684.310730,486.071045 661.746521,500.329102 631.324036,501.413391 
	C594.389038,502.729828 560.154236,474.519653 554.227539,437.899872 
	C546.471191,389.974915 579.631592,353.654755 618.731262,347.734863 
	C659.113708,341.620758 698.402527,369.351654 706.004028,409.765686 
	C709.204285,426.780182 706.998352,443.138672 699.158386,459.045441 
z"/>
<path fill="#FEFEFE" opacity="1.000000" stroke="none" 
	d="
M372.080627,493.106293 
	C330.763763,479.050293 309.306549,435.502960 323.124542,394.421967 
	C336.261749,355.364868 380.548431,333.418030 420.034210,346.397095 
	C460.514557,359.703033 482.328735,402.900574 469.211304,443.779999 
	C456.284790,484.064362 413.378082,505.988403 372.080627,493.106293 
z"/>
<path fill="#FEFEFE" opacity="1.000000" stroke="none" 
	d="
M398.216614,573.643921 
	C403.524353,581.915955 403.030548,590.336243 399.864868,598.674377 
	C399.191864,600.447021 396.516418,602.453186 394.698608,602.517517 
	C392.883881,602.581726 390.091644,600.765991 389.280792,599.043396 
	C385.573944,591.168762 385.553345,582.927429 389.193176,575.029907 
	C391.007965,571.092285 394.433105,570.862549 398.216614,573.643921 
z"/>
<path fill="#FEFEFE" opacity="1.000000" stroke="none" 
	d="
M559.110107,680.912048 
	C560.134949,684.238281 561.078491,687.188904 562.162598,690.578796 
	C558.862183,690.578796 556.273254,690.578796 552.668945,690.578796 
	C554.128357,685.390869 555.468384,680.627197 557.204834,674.454468 
	C558.113098,677.483154 558.570923,679.009766 559.110107,680.912048 
z"/>
<path fill="#FEFEFE" opacity="1.000000" stroke="none" 
	d="
M626.580566,575.877563 
	C628.075195,580.402954 629.353821,584.658447 630.783997,589.418091 
	C627.578857,589.418091 624.751587,589.418091 620.790588,589.418091 
	C622.730713,584.611206 624.547668,580.109436 626.580566,575.877563 
z"/>
<path fill="#FEFEFE" opacity="1.000000" stroke="none" 
	d="
M615.482666,672.192871 
	C620.370728,673.284302 622.011475,676.384216 620.864319,680.470886 
	C619.606445,684.952026 615.587891,684.737305 611.043579,684.776306 
	C611.043579,681.189026 610.760376,677.745972 611.228210,674.408142 
	C611.356934,673.490112 613.729614,672.886719 615.482666,672.192871 
z"/>
<path fill="#FEFEFE" opacity="1.000000" stroke="none" 
	d="
M443.362579,583.311951 
	C443.003937,580.178589 443.027557,577.379150 442.827332,574.595825 
	C442.579926,571.156738 444.486603,570.605896 447.146362,571.329773 
	C450.831635,572.332886 453.415497,574.460205 452.846680,578.716675 
	C452.323700,582.629761 449.309662,584.160645 443.362579,583.311951 
z"/>
</svg>